# xmcd
#
# Track frame offsets:
#	150
#	15773
#	34208
#	50539
#	68467
#	86584
#	107913
#	128986
#	143108
#	162359
#	183105
#	197253
#
# Disc length: 2869 seconds
#
# Revision: 1
# Processed by: cddbd v1.5.1PL0 Copyright (c) Steve Scherf et al.
# Submitted via: audiograbber 1.83.01
#
DISCID=920b330c
DTITLE=Nakorn Mee-chok-chai - Nakorn Mee-chok-chai - Vol.1
DYEAR=1900
DGENRE=Thai 
TTITLE0=Boop pay sun ni ward
TTITLE1=Kid tueng pee mai
TTITLE2=Num tuam
TTITLE3=Mon ruk mae klong
TTITLE4=Larn ruk lun tom
TTITLE5=Yak roo jai tur
TTITLE6=Nao lome tee rya noo
TTITLE7=Klom nang non
TTITLE8=Sieng krui riek nang
TTITLE9=Ta wan ron tee nong harn
TTITLE10=Wad sa na pee noi
TTITLE11=Mae kah tah kom
EXTD=
EXTT0=
EXTT1=
EXTT2=
EXTT3=
EXTT4=
EXTT5=
EXTT6=
EXTT7=
EXTT8=
EXTT9=
EXTT10=
EXTT11=
PLAYORDER=
